# xmcd
#
# Track frame offsets:
#	150
#	47204
#	82114
#	128190
#	161324
#	192054
#	232512
#	264212
#	313192
#	336237
#
# Disc length: 4778 seconds
# Revision: 0
# Processed by: cddbd v1.5.2PL0 Copyright (c) Steve Scherf et al.
# Submitted via: dBpowerAMP V12.0
#
DISCID=7b12a80a
DTITLE=Various Artist - The Definitive Salsoul Mixes '78-'83 (1 of 2)
DYEAR=2005
DGENRE=Soul
TTITLE0=Innerlife Feat. Jocelyn Brown - Ain't No Mountain High Enough
TTITLE1=The Salsoul Orchestra - How High
TTITLE2=Bunny Sigler - By The Way You Dance
TTITLE3=First Choice - Double Cross
TTITLE4=Loleatta Holloway - The Greatest Performance Of My Life
TTITLE5=Instant Funk - Crying
TTITLE6=Aurra - When I Come Home
TTITLE7=Logg - I Know You Will
TTITLE8=Jimmy Castor - Tellin On The Devil
TTITLE9=Skyy - High
EXTD=
EXTT0=
EXTT1=
EXTT2=
EXTT3=
EXTT4=
EXTT5=
EXTT6=
EXTT7=
EXTT8=
EXTT9=
PLAYORDER=
